name Walk1.mot
datacolumns 19
datarows 17
range 1.74200000 1.75800000
endheader

                time	   L_ground_force_vx	   L_ground_force_vy	   L_ground_force_vz	   L_ground_force_px	   L_ground_force_py	   L_ground_force_pz	   R_ground_force_vx	   R_ground_force_vy	   R_ground_force_vz	   R_ground_force_px	   R_ground_force_py	   R_ground_force_pz	   L_ground_torque_x	   L_ground_torque_y	   L_ground_torque_z	   R_ground_torque_x	   R_ground_torque_y	   R_ground_torque_z	
          1.74200000	         15.48537425	        573.08112720	         36.89306940	         -0.40859382	          0.00000000	         -0.06579908	         -0.02607366	          0.25588700	          0.01145227	          0.00005812	          0.00000000	          0.00008423	          0.00000000	         -0.40968376	          0.00000000	          0.00000000	          0.00011637	          0.00000000	
          1.74300000	         15.86702096	        574.61109117	         37.06860728	         -0.40836742	          0.00000000	         -0.06585977	         -0.02800992	          0.26817997	          0.01161710	          0.00006049	          0.00000000	          0.00008726	          0.00000000	         -0.40935062	          0.00000000	          0.00000000	          0.00013427	          0.00000000	
          1.74400000	         16.25229946	        576.15403134	         37.24595482	         -0.40814294	          0.00000000	         -0.06591945	         -0.03001044	          0.28050772	          0.01174927	          0.00006284	          0.00000000	          0.00009022	          0.00000000	         -0.40921550	          0.00000000	          0.00000000	          0.00015327	          0.00000000	
          1.74500000	         16.64119060	        577.70983018	         37.42499822	         -0.40792036	          0.00000000	         -0.06597814	         -0.03207292	          0.29282255	          0.01184521	          0.00006515	          0.00000000	          0.00009308	          0.00000000	         -0.40928553	          0.00000000	          0.00000000	          0.00017341	          0.00000000	
          1.74600000	         17.03367381	        579.27833579	         37.60561542	         -0.40769963	          0.00000000	         -0.06603589	         -0.03419459	          0.30507240	          0.01190113	          0.00006740	          0.00000000	          0.00009582	          0.00000000	         -0.40956825	          0.00000000	          0.00000000	          0.00019470	          0.00000000	
          1.74700000	         17.42972775	        580.85936309	         37.78767575	         -0.40748072	          0.00000000	         -0.06609270	         -0.03637220	          0.31720065	          0.01191310	          0.00006958	          0.00000000	          0.00009842	          0.00000000	         -0.41007173	          0.00000000	          0.00000000	          0.00021716	          0.00000000	
          1.74800000	         17.82933108	        582.45269505	         37.97103973	         -0.40726361	          0.00000000	         -0.06614860	         -0.03860195	          0.32914591	          0.01187699	          0.00007168	          0.00000000	          0.00010085	          0.00000000	         -0.41080471	          0.00000000	          0.00000000	          0.00024082	          0.00000000	
          1.74900000	         18.23246313	        584.05808353	         38.15555919	         -0.40704826	          0.00000000	         -0.06620362	         -0.04087947	          0.34084184	          0.01178847	          0.00007367	          0.00000000	          0.00010310	          0.00000000	         -0.41177651	          0.00000000	          0.00000000	          0.00026568	          0.00000000	
          1.75000000	         18.63910460	        585.67524973	         38.34107783	         -0.40683466	          0.00000000	         -0.06625778	         -0.04319981	          0.35221697	          0.01164303	          0.00007555	          0.00000000	          0.00010513	          0.00000000	         -0.41299692	          0.00000000	          0.00000000	          0.00029175	          0.00000000	
          1.75100000	         19.04923804	        587.30388410	         38.52743188	         -0.40662278	          0.00000000	         -0.06631111	         -0.04555735	          0.36319451	          0.01143600	          0.00007729	          0.00000000	          0.00010691	          0.00000000	         -0.41447601	          0.00000000	          0.00000000	          0.00031904	          0.00000000	
          1.75200000	         19.46284833	        588.94364612	         38.71445099	         -0.40641260	          0.00000000	         -0.06636362	         -0.04794582	          0.37369217	          0.01116250	          0.00007887	          0.00000000	          0.00010841	          0.00000000	         -0.41622388	          0.00000000	          0.00000000	          0.00034754	          0.00000000	
          1.75300000	         19.87992295	        590.59416437	         38.90195911	         -0.40620411	          0.00000000	         -0.06641534	         -0.05035823	          0.38362202	          0.01081748	          0.00008027	          0.00000000	          0.00010961	          0.00000000	         -0.41825054	          0.00000000	          0.00000000	          0.00037727	          0.00000000	
          1.75400000	         20.30045218	        592.25503728	         39.08977558	         -0.40599730	          0.00000000	         -0.06646630	         -0.05278683	          0.39289028	          0.01039573	          0.00008148	          0.00000000	          0.00011047	          0.00000000	         -0.42056565	          0.00000000	          0.00000000	          0.00040819	          0.00000000	
          1.75500000	         20.72442914	        593.92583498	         39.27771653	         -0.40579216	          0.00000000	         -0.06651653	         -0.05522311	          0.40139718	          0.00989185	          0.00008245	          0.00000000	          0.00011095	          0.00000000	         -0.42317850	          0.00000000	          0.00000000	          0.00044030	          0.00000000	
          1.75600000	         21.15184971	        595.60610190	         39.46559656	         -0.40558868	          0.00000000	         -0.06656604	         -0.05765771	          0.40903686	          0.00930030	          0.00008318	          0.00000000	          0.00011102	          0.00000000	         -0.42609789	          0.00000000	          0.00000000	          0.00047358	          0.00000000	
          1.75700000	         21.58271252	        597.29535974	         39.65323058	         -0.40538685	          0.00000000	         -0.06661487	         -0.06008043	          0.41569717	          0.00861537	          0.00008363	          0.00000000	          0.00011063	          0.00000000	         -0.42933216	          0.00000000	          0.00000000	          0.00050800	          0.00000000	
          1.75800000	         22.01701892	        598.99311026	         39.84043564	         -0.40518667	          0.00000000	         -0.06666303	         -0.06248015	          0.42125960	          0.00783121	          0.00008378	          0.00000000	          0.00010975	          0.00000000	         -0.43288918	          0.00000000	          0.00000000	          0.00054351	          0.00000000	
